<mxfile host="app.diagrams.net" modified="2022-08-23T20:24:03.324Z" agent="5.0 (Windows NT 10.0; Win64; x64) AppleWebKit/537.36 (KHTML, like Gecko) Chrome/104.0.5112.102 Safari/537.36" etag="LMIOQcLcmAOFxR_o7_ql" version="20.2.6" type="github">
  <diagram id="C5RBs43oDa-KdzZeNtuy" name="Page-1">
    <mxGraphModel dx="1208" dy="686" grid="1" gridSize="10" guides="1" tooltips="1" connect="1" arrows="1" fold="1" page="1" pageScale="1" pageWidth="827" pageHeight="1169" math="0" shadow="0">
      <root>
        <mxCell id="WIyWlLk6GJQsqaUBKTNV-0" />
        <mxCell id="WIyWlLk6GJQsqaUBKTNV-1" parent="WIyWlLk6GJQsqaUBKTNV-0" />
        <mxCell id="VHNv_6cauZghMQ68zozI-8" value="" style="edgeStyle=orthogonalEdgeStyle;rounded=0;orthogonalLoop=1;jettySize=auto;html=1;" edge="1" parent="WIyWlLk6GJQsqaUBKTNV-1" source="VHNv_6cauZghMQ68zozI-0" target="VHNv_6cauZghMQ68zozI-2">
          <mxGeometry relative="1" as="geometry" />
        </mxCell>
        <mxCell id="VHNv_6cauZghMQ68zozI-0" value="Start" style="strokeWidth=2;html=1;shape=mxgraph.flowchart.start_2;whiteSpace=wrap;" vertex="1" parent="WIyWlLk6GJQsqaUBKTNV-1">
          <mxGeometry x="364" y="10" width="100" height="100" as="geometry" />
        </mxCell>
        <mxCell id="VHNv_6cauZghMQ68zozI-9" value="" style="edgeStyle=orthogonalEdgeStyle;rounded=0;orthogonalLoop=1;jettySize=auto;html=1;" edge="1" parent="WIyWlLk6GJQsqaUBKTNV-1" source="VHNv_6cauZghMQ68zozI-2" target="VHNv_6cauZghMQ68zozI-3">
          <mxGeometry relative="1" as="geometry" />
        </mxCell>
        <mxCell id="VHNv_6cauZghMQ68zozI-2" value="Input&lt;br&gt;Number, n" style="shape=parallelogram;html=1;strokeWidth=2;perimeter=parallelogramPerimeter;whiteSpace=wrap;rounded=1;arcSize=12;size=0.23;" vertex="1" parent="WIyWlLk6GJQsqaUBKTNV-1">
          <mxGeometry x="364" y="160" width="100" height="60" as="geometry" />
        </mxCell>
        <mxCell id="VHNv_6cauZghMQ68zozI-11" value="" style="edgeStyle=orthogonalEdgeStyle;rounded=0;orthogonalLoop=1;jettySize=auto;html=1;" edge="1" parent="WIyWlLk6GJQsqaUBKTNV-1" source="VHNv_6cauZghMQ68zozI-3" target="VHNv_6cauZghMQ68zozI-10">
          <mxGeometry relative="1" as="geometry" />
        </mxCell>
        <mxCell id="VHNv_6cauZghMQ68zozI-16" value="" style="edgeStyle=orthogonalEdgeStyle;rounded=0;orthogonalLoop=1;jettySize=auto;html=1;" edge="1" parent="WIyWlLk6GJQsqaUBKTNV-1" source="VHNv_6cauZghMQ68zozI-3" target="VHNv_6cauZghMQ68zozI-15">
          <mxGeometry relative="1" as="geometry" />
        </mxCell>
        <mxCell id="VHNv_6cauZghMQ68zozI-3" value="n&amp;lt;10" style="strokeWidth=2;html=1;shape=mxgraph.flowchart.decision;whiteSpace=wrap;" vertex="1" parent="WIyWlLk6GJQsqaUBKTNV-1">
          <mxGeometry x="364" y="260" width="100" height="100" as="geometry" />
        </mxCell>
        <mxCell id="VHNv_6cauZghMQ68zozI-14" value="" style="edgeStyle=orthogonalEdgeStyle;rounded=0;orthogonalLoop=1;jettySize=auto;html=1;" edge="1" parent="WIyWlLk6GJQsqaUBKTNV-1" source="VHNv_6cauZghMQ68zozI-10" target="VHNv_6cauZghMQ68zozI-13">
          <mxGeometry relative="1" as="geometry" />
        </mxCell>
        <mxCell id="VHNv_6cauZghMQ68zozI-10" value="n&lt;sup&gt;2&lt;/sup&gt;" style="rounded=1;whiteSpace=wrap;html=1;absoluteArcSize=1;arcSize=14;strokeWidth=2;" vertex="1" parent="WIyWlLk6GJQsqaUBKTNV-1">
          <mxGeometry x="510" y="260" width="100" height="100" as="geometry" />
        </mxCell>
        <mxCell id="VHNv_6cauZghMQ68zozI-12" value="True" style="text;html=1;strokeColor=none;fillColor=none;align=center;verticalAlign=middle;whiteSpace=wrap;rounded=0;" vertex="1" parent="WIyWlLk6GJQsqaUBKTNV-1">
          <mxGeometry x="450" y="290" width="60" height="30" as="geometry" />
        </mxCell>
        <mxCell id="VHNv_6cauZghMQ68zozI-13" value="End" style="strokeWidth=2;html=1;shape=mxgraph.flowchart.start_2;whiteSpace=wrap;" vertex="1" parent="WIyWlLk6GJQsqaUBKTNV-1">
          <mxGeometry x="650" y="260" width="100" height="100" as="geometry" />
        </mxCell>
        <mxCell id="VHNv_6cauZghMQ68zozI-19" value="" style="edgeStyle=orthogonalEdgeStyle;rounded=0;orthogonalLoop=1;jettySize=auto;html=1;" edge="1" parent="WIyWlLk6GJQsqaUBKTNV-1" source="VHNv_6cauZghMQ68zozI-15" target="VHNv_6cauZghMQ68zozI-17">
          <mxGeometry relative="1" as="geometry" />
        </mxCell>
        <mxCell id="VHNv_6cauZghMQ68zozI-15" value="rem = n%10" style="rounded=1;whiteSpace=wrap;html=1;absoluteArcSize=1;arcSize=14;strokeWidth=2;" vertex="1" parent="WIyWlLk6GJQsqaUBKTNV-1">
          <mxGeometry x="364" y="400" width="100" height="100" as="geometry" />
        </mxCell>
        <mxCell id="VHNv_6cauZghMQ68zozI-20" value="" style="edgeStyle=orthogonalEdgeStyle;rounded=0;orthogonalLoop=1;jettySize=auto;html=1;" edge="1" parent="WIyWlLk6GJQsqaUBKTNV-1" source="VHNv_6cauZghMQ68zozI-17" target="VHNv_6cauZghMQ68zozI-18">
          <mxGeometry relative="1" as="geometry" />
        </mxCell>
        <mxCell id="VHNv_6cauZghMQ68zozI-17" value="n = n/10" style="rounded=1;whiteSpace=wrap;html=1;absoluteArcSize=1;arcSize=14;strokeWidth=2;" vertex="1" parent="WIyWlLk6GJQsqaUBKTNV-1">
          <mxGeometry x="364" y="550" width="100" height="100" as="geometry" />
        </mxCell>
        <mxCell id="VHNv_6cauZghMQ68zozI-22" value="" style="edgeStyle=orthogonalEdgeStyle;rounded=0;orthogonalLoop=1;jettySize=auto;html=1;" edge="1" parent="WIyWlLk6GJQsqaUBKTNV-1" source="VHNv_6cauZghMQ68zozI-18" target="VHNv_6cauZghMQ68zozI-21">
          <mxGeometry relative="1" as="geometry" />
        </mxCell>
        <mxCell id="VHNv_6cauZghMQ68zozI-24" style="edgeStyle=orthogonalEdgeStyle;rounded=0;orthogonalLoop=1;jettySize=auto;html=1;exitX=0;exitY=0.5;exitDx=0;exitDy=0;exitPerimeter=0;entryX=0;entryY=0.5;entryDx=0;entryDy=0;" edge="1" parent="WIyWlLk6GJQsqaUBKTNV-1" source="VHNv_6cauZghMQ68zozI-18" target="VHNv_6cauZghMQ68zozI-15">
          <mxGeometry relative="1" as="geometry" />
        </mxCell>
        <mxCell id="VHNv_6cauZghMQ68zozI-18" value="n&amp;lt;10" style="strokeWidth=2;html=1;shape=mxgraph.flowchart.decision;whiteSpace=wrap;" vertex="1" parent="WIyWlLk6GJQsqaUBKTNV-1">
          <mxGeometry x="364" y="700" width="100" height="100" as="geometry" />
        </mxCell>
        <mxCell id="VHNv_6cauZghMQ68zozI-21" value="n&lt;sup&gt;2&lt;/sup&gt;" style="rounded=1;whiteSpace=wrap;html=1;absoluteArcSize=1;arcSize=14;strokeWidth=2;" vertex="1" parent="WIyWlLk6GJQsqaUBKTNV-1">
          <mxGeometry x="510" y="700" width="100" height="100" as="geometry" />
        </mxCell>
      </root>
    </mxGraphModel>
  </diagram>
</mxfile>
